<?xml version="1.0" encoding="utf-8"?>
<!-- Generator: Adobe Illustrator 21.0.0, SVG Export Plug-In . SVG Version: 6.00 Build 0)  -->
<svg version="1.1" id="Layer_1" xmlns="http://www.w3.org/2000/svg" xmlns:xlink="http://www.w3.org/1999/xlink" x="0px" y="0px"
	 viewBox="0 0 720 100" style="enable-background:new 0 0 720 100;" xml:space="preserve">
<style type="text/css">
	.st0{fill:#231F20;}
	.st1{fill:#00ADEE;}
	.st2{fill:none;}
</style>
<path class="st0" d="M8,78.3L19,53h61.8l-4.2,9.6h-52l-6.8,15.6H8z M21.2,47.8c1.2-2.8,3.4-5.2,6.7-7.1c3.3-2,6.6-3,10-3h49.4
	l-4.6,10.7H21L21.2,47.8z"/>
<path class="st0" d="M78.7,78.3l17.6-40.6h9.8L88.6,78.3H78.7z"/>
<path class="st0" d="M121.5,78.3l13-29.8h-25.8l4.6-10.7H175l-4.6,10.7h-26.2l-13,29.8H121.5z"/>
<path class="st0" d="M176.3,53.3h9.8l-10.8,25h-9.8L176.3,53.3z M193.1,37.7l29.1,29.6L235,37.7h9.8l-17.6,40.6h-9.8l-29.1-29.8
	h-9.9l4.6-10.7H193.1z"/>
<path class="st0" d="M297,78.3h-49.4c-3.4,0-5.9-1-7.5-2.9c-1.5-2-1.7-4.4-0.5-7.2l6.5-15.1h61.8l-4.2,9.6h-52l-2,4.6h52L297,78.3z
	 M248.4,47.8c1.2-2.8,3.4-5.2,6.7-7.1c3.3-2,6.6-3,10-3h49.4l-4.6,10.7h-61.8L248.4,47.8z"/>
<path class="st0" d="M316,50.5l1.1-2.7c1.2-2.8,3.4-5.2,6.7-7.1c3.3-2,6.6-3,10-3h49.4l-4.6,10.7h-52l-2.1,4.9h39.5
	c4.2,0,7,0.7,8.4,2.2c1.4,1.4,1.3,3.9-0.2,7.5l-2,4.6c-0.8,1.8-1.7,3.4-2.9,4.7c-1.2,1.3-2.6,2.4-4.1,3.3c-1.5,0.9-3.1,1.6-4.8,2
	c-1.7,0.4-3.4,0.7-5.2,0.7H304l4.6-10.7h51.6l2-4.6h-39.3c-3.8-0.1-6.4-0.9-7.9-2.5c-1.5-1.6-1.5-3.9-0.2-7.1L316,50.5z"/>
<path class="st0" d="M386.7,50.5l1.1-2.7c1.2-2.8,3.4-5.2,6.7-7.1c3.3-2,6.6-3,10-3H454l-4.6,10.7h-52l-2.1,4.9h39.5
	c4.2,0,7,0.7,8.4,2.2c1.4,1.4,1.3,3.9-0.2,7.5l-2,4.6c-0.8,1.8-1.7,3.4-2.9,4.7c-1.2,1.3-2.6,2.4-4.1,3.3c-1.5,0.9-3.1,1.6-4.8,2
	c-1.7,0.4-3.4,0.7-5.2,0.7h-49.3l4.6-10.7h51.6l2-4.6h-39.3c-3.8-0.1-6.4-0.9-7.9-2.5c-1.4-1.6-1.5-3.9-0.2-7.1L386.7,50.5z"/>
<path class="st0" d="M499.6,78.3l12.9-29.8h-25.8l4.6-10.7h61.8l-4.6,10.7h-26.2l-13,29.8H499.6z"/>
<path class="st0" d="M542.6,78.3l17.6-40.6h9.8l-17.6,40.6H542.6z"/>
<path class="st0" d="M570.4,53.3h9.8l-10.8,25h-9.8L570.4,53.3z M611.5,78.3l12.9-29.8l-30.6,29.8h-6.5l-4.8-29.8h-9.9l4.6-10.7
	h13.5l5.5,28l28.8-28h14l-17.6,40.6H611.5z"/>
<path class="st0" d="M690.1,78.3h-49.4c-3.4,0-5.9-1-7.5-2.9c-1.5-2-1.7-4.4-0.5-7.2l6.6-15.1H701l-4.2,9.6h-52l-2,4.6h52
	L690.1,78.3z M641.5,47.8c1.2-2.8,3.4-5.2,6.7-7.1c3.3-2,6.6-3,10-3h49.4L703,48.4h-61.8L641.5,47.8z"/>
<path class="st1" d="M464.2,75.7l-2.3-1l14.8-43.4L470,44.9c0,0-0.7,1.6-1,1.6c-0.2,0-0.5-0.8-0.5-0.8l-0.6-1.6c0,0-0.2-0.6-0.4-0.6
	c-0.3,0.1-0.7,0.7-0.7,0.7s-1.8,2.7-2.1,3c-0.1,0.1-0.8,0.1-0.8,0.1l-1.7,0c0,0-0.5,0-0.6-0.2c-0.1-0.4,0.1-4.2,0.1-4.2l-2.8,5.3
	c0,0-0.2,0.4-0.3,0.4c-0.2,0.1-1,0.1-1,0.1h-70.1c0,0,0.4-1.1,0.8-1.9c0.4-0.7,0.8-1.3,0.8-1.3l67.3,0l7-11.1c0,0,1-1.7,1.5-1.6
	c0.5,0.1,0.2,2.2,0.2,2.2l-0.6,7.8l2.6-3.9c0,0,0.5-0.9,0.9-0.9c0.6,0,0.8,1.1,0.8,1.1l0.5,1.7L485.6,6c0,0,0.4-1,0.8-1
	c0.7,0,1.6,0.3,2,0.6c0.1,0.1-0.1,0.8-0.1,0.8l-17.4,51l6.4-11.9l72.5,0l-1.4,3.2l-69.6,0L464.2,75.7z"/>
<path class="st2" d="M21.1,47.8"/>
<path class="st2" d="M18.4,54.3"/>
<path class="st1" d="M82.6,48.8H20.8c0,0,0.3-1,0.6-1.7c0.3-0.6,0.9-1.5,0.9-1.5h61.5L82.6,48.8z"/>
<polygon class="st1" points="101.3,48.8 91.5,48.8 92.9,45.6 102.7,45.6 "/>
<polygon class="st1" points="109.9,45.6 108.5,48.8 170.3,48.8 171.6,45.6 "/>
<polygon class="st1" points="179.6,45.6 178.2,48.8 204,48.8 200.9,45.6 "/>
<polygon class="st1" points="231.5,45.6 230.2,48.8 240,48.8 241.4,45.6 "/>
<path class="st1" d="M309.8,48.8H248c0,0,0.2-0.8,0.5-1.5c0.3-0.6,1-1.7,1-1.7h61.5L309.8,48.8z"/>
<path class="st1" d="M378.6,48.8h-61.9c0,0,0.4-1,0.7-1.7c0.3-0.7,0.9-1.5,0.9-1.5h61.5L378.6,48.8z"/>
<polygon class="st1" points="565.2,48.8 555.4,48.8 556.8,45.6 566.6,45.6 "/>
<polygon class="st1" points="573.7,45.6 572.3,48.8 592.8,48.8 592.2,45.6 "/>
<polygon class="st1" points="635.5,45.6 634.1,48.8 613.5,48.8 616.8,45.6 "/>
<path class="st1" d="M702.9,48.8h-61.8c0,0,0.2-0.8,0.5-1.5c0.3-0.6,1-1.7,1-1.7h61.6L702.9,48.8z"/>
<g>
</g>
<g>
</g>
<g>
</g>
<g>
</g>
<g>
</g>
<g>
</g>
<g>
</g>
<g>
</g>
<g>
</g>
<g>
</g>
<g>
</g>
<g>
</g>
<g>
</g>
<g>
</g>
<g>
</g>
</svg>
